<svg width="324" height="85" viewBox="0 0 324 85" fill="none" xmlns="http://www.w3.org/2000/svg">
<path d="M138.754 17.1066V56.6989C129.978 56.6989 122.86 49.5812 122.86 40.8054V33.0002C122.86 24.2243 129.978 17.1066 138.754 17.1066Z" fill="#FA5606"/>
<path d="M155.86 56.7394C147.085 56.7394 139.967 49.6217 139.967 40.8459V17.1472C148.743 17.1472 155.86 24.2649 155.86 33.0407V56.7394Z" fill="#FA5606"/>
<path d="M157.316 56.7394V17.1472C166.092 17.1472 173.21 24.2649 173.21 33.0407V40.8459C173.21 49.6217 166.092 56.7394 157.316 56.7394Z" fill="#FA5606"/>
<path d="M139.846 28.8752L131.354 20.4634C135.964 15.853 143.486 15.8126 148.137 20.3825L139.806 28.9157L139.846 28.8752Z" fill="#FA5606"/>
<path d="M157.075 44.9306L165.567 53.3424C160.957 57.9527 153.435 57.9932 148.784 53.4233L157.115 44.8901L157.075 44.9306Z" fill="#FA5606"/>
<path d="M191.045 56.7394C182.269 56.7394 175.151 49.6217 175.151 40.8459V17.1472C183.927 17.1472 191.045 24.2649 191.045 33.0407V56.7394Z" fill="#FA5606"/>
<path d="M208.8 56.7394H192.906V17.1472C201.682 17.1472 208.8 24.2649 208.8 33.0407V56.7394Z" fill="#FA5606"/>
<path d="M210.418 84.1993V17.1472C219.194 17.1472 226.312 24.265 226.312 33.0408V68.3058C226.312 77.0816 219.194 84.1993 210.418 84.1993Z" fill="#FA5606"/>
<path d="M192.784 44.9306L201.276 53.3424C196.666 57.9527 189.144 57.9932 184.493 53.4233L192.824 44.8901L192.784 44.9306Z" fill="#FA5606"/>
<path d="M210.458 44.9306L218.95 53.3424C214.34 57.9527 206.818 57.9932 202.167 53.4233L210.498 44.8901L210.458 44.9306Z" fill="#FA5606"/>
<path d="M298.014 56.7395H282.12V17.1472C290.896 17.1472 298.014 24.2649 298.014 33.0407V56.7395Z" fill="#FA5606"/>
<path d="M306.87 56.6585H299.712V19.2501H306.87C316.212 19.2501 323.815 26.8531 323.815 36.1951V39.754C323.815 49.096 316.212 56.699 306.87 56.699V56.6585Z" fill="#FA5606"/>
<path d="M295.709 16.581C300.288 16.581 304 12.8692 304 8.29052C304 3.71179 300.288 0 295.709 0C291.131 0 287.419 3.71179 287.419 8.29052C287.419 12.8692 291.131 16.581 295.709 16.581Z" fill="#FA5606"/>
<path d="M300.238 44.9305L308.731 53.3424C304.12 57.9527 296.598 57.9931 291.947 53.4232L300.278 44.8901L300.238 44.9305Z" fill="#FA5606"/>
<path d="M69.7207 17.1066V56.6989C60.9449 56.6989 53.8271 49.5812 53.8271 40.8054V33.0001C53.8271 24.2243 60.9449 17.1066 69.7207 17.1066Z" fill="#FA5606"/>
<path d="M105.026 56.7394V17.1471C113.802 17.1471 120.92 24.2648 120.92 33.0407V40.8459C120.92 49.6217 113.802 56.7394 105.026 56.7394Z" fill="#FA5606"/>
<path d="M86.666 17.1066V56.6989C77.8902 56.6989 70.7725 49.5812 70.7725 40.8054V33.0001C70.7725 24.2243 77.8902 17.1066 86.666 17.1066Z" fill="#FA5606"/>
<path d="M87.9199 56.7394V17.1471C96.6958 17.1471 103.813 24.2648 103.813 33.0407V40.8459C103.813 49.6217 96.6958 56.7394 87.9199 56.7394Z" fill="#FA5606"/>
<path d="M103.247 28.956L94.7539 20.5442C99.3642 15.9338 106.886 15.8934 111.537 20.4633L103.206 28.9964L103.247 28.956Z" fill="#FA5606"/>
<path d="M86.5047 29.5627L78.5781 20.5847C83.1885 15.9743 90.7106 15.9339 95.3614 20.5038L86.4238 29.6031L86.5047 29.5627Z" fill="#FA5606"/>
<path d="M87.8788 44.0812L95.6436 53.221C91.0333 57.8313 83.5111 57.8718 78.8604 53.3019L87.9193 44.0407L87.8788 44.0812Z" fill="#FA5606"/>
<path d="M71.5416 28.956L63.0488 20.5442C67.6592 15.9338 75.1813 15.8934 79.8321 20.4633L71.5011 28.9964L71.5416 28.956Z" fill="#FA5606"/>
<path d="M12.9817 30.6546H18.7244V56.6181H12.9817C5.82359 56.6181 0 50.7945 0 43.6364C0 36.4782 5.82359 30.6546 12.9817 30.6546Z" fill="#FA5606"/>
<path d="M38.864 56.6586H33.1213V30.6952L38.864 30.6952C46.0221 30.6952 51.8457 36.5187 51.8457 43.6769C51.8457 50.835 46.0221 56.6586 38.864 56.6586Z" fill="#FA5606"/>
<path d="M43.5142 29.1987L9.26025 29.1987V25.9634C9.26025 21.1104 13.2235 17.1471 18.0765 17.1471L43.5547 17.1471V29.1987H43.5142Z" fill="#FA5606"/>
<path d="M36.0329 30.6546V41.6547H33.1211L27.6211 37.6106V30.6546H36.0329Z" fill="#FA5606"/>
<path d="M19.8564 25.2355L19.8564 56.6586H31.908V25.2355H19.8564Z" fill="#FA5606"/>
<path d="M31.9081 44.607H19.8565L14.3564 48.6511V56.6585H31.9081V44.607Z" fill="#FA5606"/>
<path d="M241.274 30.6546H247.016V56.6181H241.274C234.116 56.6181 228.292 50.7945 228.292 43.6363C228.292 36.4782 234.116 30.6546 241.274 30.6546Z" fill="#FA5606"/>
<path d="M267.197 56.6586H261.454V30.6951L267.197 30.6951C274.355 30.6951 280.179 36.5187 280.179 43.6769C280.179 50.835 274.355 56.6586 267.197 56.6586Z" fill="#FA5606"/>
<path d="M271.807 29.1987L237.553 29.1987V25.9634C237.553 21.1104 241.516 17.1471 246.369 17.1471L271.848 17.1471V29.1987H271.807Z" fill="#FA5606"/>
<path d="M264.325 30.6546V41.6547H261.413L255.913 37.6106V30.6546H264.325Z" fill="#FA5606"/>
<path d="M248.189 25.195V56.6181H260.241V25.195H248.189Z" fill="#FA5606"/>
<path d="M260.2 44.6069H248.189L242.648 48.6511V56.6585H260.2V44.6069Z" fill="#FA5606"/>
</svg>
